<svg xmlns="http://www.w3.org/2000/svg" viewBox="0 0 289.5 188.72"><defs><style>.cls-1{fill:#010101;}.cls-2{fill:#fd0000;}.cls-3{fill:#fd0101;}.cls-4{fill:#fb0303;}.cls-5{fill:#fc0102;}.cls-6{fill:#fc0303;}.cls-7{fill:#f80404;}.cls-8{fill:#fa0404;}.cls-9{fill:#060304;}.cls-10{fill:#fb0404;}.cls-11{fill:#fb0505;}.cls-12{fill:#fb0607;}.cls-13{fill:#fa0809;}.cls-14{fill:#fb0506;}.cls-15{fill:#fa0a0c;}.cls-16{fill:#fa0b0c;}.cls-17{fill:#fb1215;}.cls-18{fill:#fb171a;}.cls-19{fill:#fb2629;}.cls-20{fill:#fa0b0f;}.cls-21{fill:#fb1517;}.cls-22{fill:#fa1013;}.cls-23{fill:#fa2121;}.cls-24{fill:#f91418;}.cls-25{fill:#fa2a2d;}.cls-26{fill:#fb1b1e;}.cls-27{fill:#fa0909;}.cls-28{fill:#fb282c;}.cls-29{fill:#f9161a;}.cls-30{fill:#fc272a;}.cls-31{fill:#fb0709;}.cls-32{fill:#f94c53;}.cls-33{fill:#fb090a;}.cls-34{fill:#000006;}.cls-35{fill:#f20e10;}.cls-36{fill:#0a0304;}.cls-37{fill:#440201;}.cls-38{fill:#b48685;}.cls-39{fill:#908380;}.cls-40{fill:#650100;}.cls-41{fill:#460300;}.cls-42{fill:#8e0013;}.cls-43{fill:#fee0ca;}.cls-44{fill:#fb0707;}.cls-45{fill:#fa1e20;}.cls-46{fill:#f82124;}.cls-47{fill:#fc2b35;}.cls-48{fill:#fa0e15;}.cls-49{fill:#fa090a;}.cls-50{fill:#f92023;}.cls-51{fill:#f90e1a;}.cls-52{fill:#fa191e;}.cls-53{fill:#050001;}.cls-54{fill:#0c0202;}.cls-55{fill:#0b0101;}</style></defs><g><path class="cls-1" d="M216.45,100.45c-3.19-.07-6.39-.15-9.59-.16s-6.22-.14-8.93-2.2a1.23,1.23,0,0,0-1.74,0,12.72,12.72,0,0,1-8.1,2.17H168.33c-3.27,0-6.36-.7-8.88-3.29-.55-.58-.94-.93-1.59-.15-1.55,1.86-3.67,2.5-5.72,3.29-4.77.55-9.56.2-14.34.22-15.85.08-31.71,0-47.56,0A8.84,8.84,0,0,1,83.77,99c-.54-.38-1.4-.93-1.81-.34-2.27,3.24-5.59,1.6-8.35,2.48a3.61,3.61,0,0,1-1.39,0,28.59,28.59,0,0,0-6.06-.25c-1,0-1.94,0-2.91.06-2.9-.12-5.88.28-8.71-.28-.77-1.26-1.58-1-2.36-.08a12.94,12.94,0,0,1-6.9-.2c-5.73,0-11.47-.2-17.2-.13-1.8,0-2.36-.55-2.62-2.6q-4.22-30-8.69-60.09c-.35-2.38.38-2.38,1.93-2.37,6.68,0,13.38-.13,20,.11,2.35.08,4.58-.11,6.86-.1h64.38c3.24,0,6.41.24,9.2,2.35a1.42,1.42,0,0,0,2-.14,12.16,12.16,0,0,1,7.27-2.18H149c3.07,0,5.89,1,9.27.4,6.69-1.34,13.69-.39,20.56-.36.68,0,1.9-.36,1.81.82-.31,3.7,1.94,2.75,3.65,2.82.83,0,1.68-.09,2.53-.13,1.33-1,2.81-.62,4.26-.69a8.56,8.56,0,0,0,5.54.23c2.68-2.35,5.88-2.88,9.09-3,2.13-.12,4.27-.12,6.41-.17a38.35,38.35,0,0,1,18.83.17,4.27,4.27,0,0,1,2.35,1.55c.28.43.58,1.34.27,1.34-1.67.58-1.86,3.2-3.76,3.35-8.24-.58-16.38-.26-24.56-.23-4.7,0-6.42,2-6.44,7.5q-.07,19.11,0,38.23c0,4.84,1.83,7.23,6.08,7.43q10.59.48,21.18,0c4.83-.24,6.55-2.47,6.58-7.93.06-8.2.51-7.27-6.29-7.33h-4.8A3.33,3.33,0,0,0,218.22,81a2.66,2.66,0,0,1-3.76,1.43l-.14-.09C212.45,81.25,213,79,213,77.18a2.8,2.8,0,0,1,2.26-3.13,1.82,1.82,0,0,1,.33,0c3.76-.26,7.52,0,11.29-.11.94,0,1.89-.07,2.82,0,2.18.16,3.07-1,3-3.41-.28-9.09.62-18.21-.61-27.26a1.91,1.91,0,0,1,.08-.63c1.37-1.78,2-.19,2.35.89a16.06,16.06,0,0,1,.93,5.93V87.24a4.9,4.9,0,0,0,.41,2.78c1.48,3.69,4.38,4.43,7.51,4.46,7.6.09,15.21,0,22.81,0a22.62,22.62,0,0,1,4.5.25c1,.12,1.6-.31,1-1.42-1.23-2.14-1-4.5-1-6.82V35.24a15.81,15.81,0,0,0-.39-4.75c0-2.68-1.27-3.69-3.6-3.57-2.72.16-5.45,0-8.17,0-1.74,0-2.57.85-2.59,2.87,0,2.36.09,4.7-.07,7.06-.18,3-1,4-3.67,4.14-3.09.18-6.19,0-9.28,0a28.45,28.45,0,0,0-5,.87c-1.25,0-2.35-.46-2.15-2.09.13-1.22,0-3,2-2.68.44,0,.68-1.34,1.45-1.46,2.07-.9,4.26-.43,6.38-.75.35-.17-.13-.12.22-.17a5.1,5.1,0,0,0,4.71-4.93c0-2.76,0-5.53.08-8.3,2-1,4.16.15,6.16-.72a15.85,15.85,0,0,1,5.36-.28c3.6,1,7.26.59,10.89.56,1.73,0,2.28.62,2.2,2.57-.16,4.38,0,8.74-.08,13.12a117.41,117.41,0,0,0,.58,13.39c-.13,3.05.62,6.18-.69,9.11,0,12.53-.11,25.06,0,37.58,0,2.53-.35,3.44-2.82,3.38-9.41-.2-18.83-.06-28.24-.08-3,0-6.06-.08-8.68-2.11a1.43,1.43,0,0,0-2,.06,12.92,12.92,0,0,1-5.3,2A20.37,20.37,0,0,1,216.45,100.45Z"/><path class="cls-2" d="M53.8,100.06l9.48.29a12.14,12.14,0,0,0,5.56,0,14.89,14.89,0,0,1,3.53.18l1.18.13c1.53-.67,3.11-.17,4.71-.31,1-.08,1.94,0,2,1.49s-.87,1.62-1.87,1.77c-.36,0-1.8-.91-1,1.07.27.71-1.63,1-1.33,2.41-.15.52-.61.8-.76,1.34,2,.91,3.53-.42,5.23-1.24,1.53-.73,3-3,5-.89V107c-.56.63-.93,1.47-1.67,1.9-2.89,2.14-3.2,5.73-3.77,9.08a13.37,13.37,0,0,1-1.86,5.18A4.42,4.42,0,0,1,75.9,125c-1.88.49-3.53,2.17-5.67,1.26-1.17-.26-1.72-1.81-3-1.84l-1,3.88c-1.94-.89-2.23-3.07-3-4.89.11-.19.37-.35.23-.65V123c0,.21,0-.18-.1.26-.13,1.77.49,3.67-.77,5.21-2,2.37-3.21,5.36-5.39,7.58a10.5,10.5,0,0,1-4.53-.66,22.56,22.56,0,0,1-2.82-.52h-.58c-1.18.56-2.35-.16-3.53.5a2.93,2.93,0,0,0-2.14.79c-2.2.79-2.36-.53-1.56-2.24.64-1.45.77-2.38-.9-2.68a7.12,7.12,0,0,1-5.53-6c-1-1.7-2.71-.39-3.42-.91.94.59,1.77,2.3.51,3.4-2,1.77-1.86,4-1.89,6.25,0,1.69-.65,2.68-1.93,2.31-1.75-.54-1.92.64-2.19,1.91a10.17,10.17,0,0,1-.76,2.68c-1,1.94-2.57,2.38-3.63,1.22-1.49-1.66-3.17-1-4.7-1.49a7.32,7.32,0,0,1-2.24-2.53c-1.82-2.78-3.92-5.27-3.66-9.37a14.35,14.35,0,0,1,5.44-11c1-1.83,2.76-2.11,4.4-2.25a7,7,0,0,0,5.15-2.75,10.94,10.94,0,0,0,1.78-1.56c1.56-2,3.28-1.68,5.07-.53,2.65,1.71,4.61,4.31,7.06,7.32a64.58,64.58,0,0,1,4.66-10.08c.53-1-.27-2.24-.45-3.37a10.45,10.45,0,0,1,.46-4.09l7.48-.37a.65.65,0,0,1,1-.12Z"/><path class="cls-2" d="M191.16,38.76h-4.31c-3.41-3.7-6.66-7.52-7.49-13.11-.08-2.68.36-5.15,2.64-6.7,1.43-2.3,4-1.74,5.83-3a36.09,36.09,0,0,1,3-2.85c1.46-1.45,2.44-1.05,3.08,1.06a9.09,9.09,0,0,1,.29,1.88c.16,2.15,1.08,2.83,2.83,1.93.34-.17.67-.37,1-.51.72-.28,1.56-.56,2.08.22a2.07,2.07,0,0,1-.51,2.51h0c-.67,1.17.6,2.87-.82,3.82a7.87,7.87,0,0,0-.31,3.31,2.12,2.12,0,0,1-.5,1.94c-.87,3.42-4,5-5.22,8.14C192.56,38.4,191.77,38.44,191.16,38.76Z"/><path class="cls-3" d="M21,157.26l-.59,1.08c-.84,3.18-3.07,4.13-5.63,4.55l-1.08.3a2.55,2.55,0,0,1-2.81-.14h0c-3.4-.34-5-3.05-6.26-6.18-.72-4.18,2.53-9.64,6.72-11.14a19.4,19.4,0,0,1,3.29-.59c4,.34,6.13,3.11,7.27,7.15A4.77,4.77,0,0,1,21,157.26Z"/><path class="cls-3" d="M275,59.39V50.5a4.23,4.23,0,0,1,3.81-3.81,13.16,13.16,0,0,1,6.66.68c2.55,1.22,4.24,3.07,4.06,6.49s-2.35,7.5-4.71,8.13C281.2,63,277.7,62.94,275,59.39Z"/><path class="cls-4" d="M36.26,124.5c-1.7-.47-2.87,0-2.35,2.29.86,4.18-.82,7.19-3.2,10-1.61,1.93-3.15,3.94-4.7,5.95-.35.44-.89.95-.48,1.63s1,.42,1.53.26a17.42,17.42,0,0,0,7.32-3.87c.77-.69,1.74-2.47,2.72-.87.8,1.34-.91,1.74-1.59,2.47-.27.28-.56.53-.85.79a15.47,15.47,0,0,0-5.2,5,6.08,6.08,0,0,1-3,3.62c-1.26.87-2.58,1.46-3.87.15s-2-2.8-1.18-4.54c1-2.11.13-3-1.33-4-1.1-.78-2.66-1.34-2.49-3.4,2.79-1.34,4.59,2.54,7.31,1.82,0-.83-1.27-.63-1-1.53.4-1.18.85,0,1.27,0,1.18.08,1-.92.8-1.52-.47-1.68.68-2.53,1.27-3.66a.77.77,0,0,1,1-.52l.15.08c1.35.75.94.44,1.53-.84.91-2-.73-4.7,2.2-6.4,1.89-1.11-.37-3-1.95-3.9C32.28,124.33,34.54,122.19,36.26,124.5Z"/><path class="cls-5" d="M233.52,37.77C231,35.48,228,35.3,225,35.22c-4.29-.12-8.59-.11-12.94-.16l1.61-1.34c.79-1.49,2.35-1.54,3.47-2.41h0a10.49,10.49,0,0,1,8-5.2c2,0,4.29-.91,5.6,1.88a9,9,0,0,0,1,2.67A1.77,1.77,0,0,0,233.29,32c2,1.13.39,3.54,1.34,5l.53.36C234.86,38.7,234.3,38.84,233.52,37.77Z"/><path class="cls-6" d="M88.39,138c-.89-2.59-1.18-5.17.24-7.62a2.57,2.57,0,0,0,0-2.34c-.21-.78-.3-1.34.38-1.62a1,1,0,0,1,1.36.56s0,.07,0,.11c.52,1.91,1.79,1.47,3,1.33,4.52,1.78,5.71,3.79,4.59,7.76C96.48,141.36,92.21,142.69,88.39,138Z"/><path class="cls-6" d="M106.92,116.7a9.23,9.23,0,0,1,5.53,1.56c1.71,1.24,2,2.53.45,4.17l-1.44,1c-2.79,3.17-4.49,3.47-6.65,1.64a4.84,4.84,0,0,1-1.48-5.07A3.66,3.66,0,0,1,106.92,116.7Z"/><path class="cls-7" d="M216.45,100.45l11.44-.19c-.33,4-2.1,6.55-4.71,6.81C220.31,107.37,217.13,104.28,216.45,100.45Z"/><path class="cls-8" d="M89.36,100.25a.9.9,0,0,1,0,.4c-2.49.15-2.57,3-3.94,4.47A10.25,10.25,0,0,0,78,106.77a1.61,1.61,0,0,1-2.09.25c0-.6-1.59-1.71.43-1.74.27,0,.52-.76.78-1.18l-1.64-.57a23.53,23.53,0,0,1,3.27-.78c.61,0,1.18.12,1.06-.86a1.1,1.1,0,0,0-1-1.17H73.62c1.18-1,2.54-.36,3.8-.42,1.59-.08,3.18.31,3.53-2.34.14-1,1-1.34,2-.49A11.88,11.88,0,0,0,89.36,100.25Z"/><path class="cls-9" d="M233.52,37.77c.61.16,1.24.39,1.69-.39a5.43,5.43,0,0,1,4-1.55c-.71.64-.1,3.31-2.18,1.85-.33,1.34-1.89,2.68.09,3.93-1.69,7.13-.8,14.4-.93,21.6-.13,7.57,0,15.14,0,22.75,0,1.56.25,3.24-1,4.49a1.64,1.64,0,0,1-.89-1.5c.93-13.39.13-26.77.41-40.16a18.74,18.74,0,0,0-.91-5.27c-.17-.63-.45-1.6-1.34-.67-1.3.41-1.64-.49-1.77-1.68C230.69,39,232.35,38.64,233.52,37.77Z"/><path class="cls-10" d="M174.23,22.79c-2.6-1.46-2.2-3.73-1.31-6.15s2.74-1.42,4.31-1.21a6.79,6.79,0,0,1,1.31.46c2,.88,1.45,2.67,1.07,4.25s-1.05,3-2.74,3.07C176,23.24,175,23.56,174.23,22.79Z"/><path class="cls-11" d="M118.59,106a8.83,8.83,0,0,1,4,2.52l.22.58a2.72,2.72,0,0,1-.59,3.24c-1.87,1.22-3.79,2.19-5.53-.1-1.34-1.77-1.78-3.74-.18-5.69h0c.53-.63,1.33-.18,1.92-.59Z"/><path class="cls-11" d="M63.41,123.2a21.75,21.75,0,0,1,2.77,5.14c.23,1.73-2.28,1.8-1.74,3.73-.74,3.24-1.8,4.21-4.44,4l-.23-.13h-.24c-1.57-.95-.46-1.89,0-2.76,1-1.63,2.27-3.05,2.67-5.07C63.35,126.72,62.09,124.58,63.41,123.2Z"/><path class="cls-12" d="M198.87,7.49a4.09,4.09,0,0,1-1.34,5.16,3,3,0,0,1-.57.28c-2.2,1.06-2.36-2-3.53-3-.14-1.58-.5-3.31,1.17-4.12S197.64,6.42,198.87,7.49Z"/><path class="cls-13" d="M12.51,107.66c1.45-1.43,2.87-3.06,4.71-.57.75,1,1.41,2.13.69,3.45a2.36,2.36,0,0,1-3,1.19,17.17,17.17,0,0,1-1.84-.73C12.4,110,11.85,109,12.51,107.66Z"/><path class="cls-14" d="M250.45,30c.17,6.13.91,5.26-4.88,5.1C246.57,32.61,246.94,29.34,250.45,30Z"/><path class="cls-15" d="M148,138.56c-1.59.37-2.94,0-2.84-2.14.09-2.39,1.64-2.68,3.4-2.17C150.45,136.16,150.38,136.68,148,138.56Z"/><path class="cls-16" d="M139.33,127.86a3,3,0,0,1,3.18-.67c1.34,2.05.63,3.43-1.11,4.5-2.65,0-2.91-.45-2.08-3.83Z"/><path class="cls-16" d="M113.14,145.14c-.91-2.08-.19-3.26,1.67-3.81,2.35.55,2.45,2.22,1.62,4.32h0C115.14,147.39,114.12,146.56,113.14,145.14Z"/><path class="cls-17" d="M195.76,107.73c-.53-1.12-1-2.26,0-3.4a1.71,1.71,0,0,1,2.61-.32l.08.08C198.8,106.55,198.83,108.59,195.76,107.73Z"/><path class="cls-18" d="M276.38,4.12c1.33-2.49,3.53-3,5.37-4,.38-.2.81-.12.92.33a1.48,1.48,0,0,1-.32,1.08C280.64,2.93,279,4.49,276.38,4.12Z"/><path class="cls-19" d="M6.88,90.49c-2,2.26-4.32,2.09-6.75,1.24-.38-.75.16-.93.57-1.22h0C2.73,89.54,4.79,87.56,6.88,90.49Z"/><path class="cls-20" d="M284.56,118.06c1.25.15,1.7,1.06,1.67,2.39A1.41,1.41,0,0,1,285,122a.74.74,0,0,1-.21,0c-1.38,0-1.61-1.11-1.54-2.41C283.31,118.6,283.5,117.9,284.56,118.06Z"/><path class="cls-21" d="M181.92,104.22a1.52,1.52,0,0,1,1.53,1.5,1.59,1.59,0,0,1-1.09,1.88,1.24,1.24,0,0,1-.33,0,1.52,1.52,0,0,1-1.56-1.49,1.81,1.81,0,0,1,1.45-1.93Z"/><path class="cls-22" d="M53.74,185.13a2.64,2.64,0,0,1,.08,3.1,1.29,1.29,0,0,1-2,0,1.73,1.73,0,0,1-.17-.21h0a2.67,2.67,0,0,1-.07-3.1h0C52.3,184.47,53,184.26,53.74,185.13Z"/><path class="cls-23" d="M125.68,116.1c0-1.69.64-2.49,2.12-2.4.71.84,1.18,1.87.34,2.78S126.43,116.85,125.68,116.1Z"/><path class="cls-24" d="M283.38,113c.9.39,1.93.82,1.59,2.17-.28,1.13-1.32,1-2.16,1C280.87,114.58,282.36,113.81,283.38,113Z"/><path class="cls-25" d="M20.77,87.81c-1.75,1.55-3.22,1.49-5.25,1.25A4.78,4.78,0,0,1,20.77,87.81Z"/><path class="cls-26" d="M50.37,180.43c1.7-.25,2.87,0,1.7,2.42-.92,1-1.6.49-2.23-.45h0C49.2,181.43,49.78,180.94,50.37,180.43Z"/><path class="cls-27" d="M178.6,116.82c-.87.15-1.17-.32-1.17-1.06a1.53,1.53,0,0,1,1.07-1.8l.1,0c.79-.13,1.27.26,1.25,1.21A1.67,1.67,0,0,1,178.6,116.82Z"/><path class="cls-28" d="M184.3,6.57a1.3,1.3,0,0,1-1.48,1.17,1.42,1.42,0,0,1-1-1.53c.12-.94.89-.9,1.53-.85A1,1,0,0,1,184.3,6.57Z"/><path class="cls-29" d="M178.17,32.3c0,.8-.21,1.52-1,1.48s-.82-.79-.8-1.41.13-1.62,1-1.53C178,30.91,178.18,31.59,178.17,32.3Z"/><path class="cls-30" d="M23.44,157.21c-.6-.85-1.18-1.72-.36-2.76.3-.38.68-.12,1,.19.9,1,.61,1.84-.27,2.67l-.15-.09Z"/><path class="cls-31" d="M67.18,124.57c1.76-1,2.08,1.07,3,1.83A3.1,3.1,0,0,1,67.18,124.57Z"/><path class="cls-32" d="M53.24,159.33c.37-.41.65-1.19,1.31-.63a1,1,0,0,1,.15,1.24l-.08.1c-.61.73-.93-.1-1.35-.4A.34.34,0,0,0,53.24,159.33Z"/><path class="cls-33" d="M83.75,109c.42-.79.59-1.86,1.67-1.9a1.74,1.74,0,0,1-1.5,1.9Z"/><path class="cls-2" d="M42.43,66.58c1-8,2-16.06,3-24.09.2-1.65.74-2.39,2.35-2.33,3.94.12,7.9.09,11.85,0,1.55,0,2,.57,2.2,2.33,1.05,9.1,2.27,18.17,3.77,27.32,1-7.3,2-14.58,2.87-21.89.9-7.71.81-7.72,7.74-7.72H83c1.45,0,1.91.48,1.31,2a30.55,30.55,0,0,0-1.17,10.56,2.21,2.21,0,0,1-.42,1.72C80.86,67.37,79,80.22,77.17,93.1c-.24,1.78-.66,2.57-2.35,2.52-5.16-.14-10.34-.13-15.52,0-1.55,0-2.06-.58-2.28-2.27-1-7.6-2.15-15.19-3.25-22.75-.36-.51-.15-1.11-.21-1.57-.21,1-.46,1.89-.76,2.81-1,7.07-2,14.12-3,21.2-.26,1.87-.9,2.68-2.73,2.6-5.08-.16-10.16-.13-15.29,0-1.74,0-2.49-.56-2.77-2.55q-3.53-25.35-7.21-50.65c-.26-1.78.14-2.24,1.65-2.22H36.14c1.31,0,1.73.52,1.91,2,1.07,8.71,2.25,17.48,3.43,26.26a1.18,1.18,0,0,1,.21.88c.38,0,.21-.42.34-.62C42.37,68.09,42.05,67.25,42.43,66.58Z"/><path class="cls-2" d="M235.16,90.41V48.05a9.47,9.47,0,0,1,1.94-6.44c4.27-2.39,8.84-1.24,13.27-1.41,5.18-.22,4.46.72,4.55-5.05.06-2.85-1-6.6.45-8.34s5-.44,7.55-.63c1.18-.08,2.44,0,3.66,0,4,0,4,0,4.29,4.43a8.3,8.3,0,0,1,.24,3.47c0,18.5.06,37,0,55.48,0,1.92,1.32,4-.29,5.81-9.73,0-19.46.16-29.19.07C238.63,95.4,236.08,94.1,235.16,90.41Z"/><path class="cls-2" d="M82.73,52.5c-.31-3.62-1.11-7.31,1.56-10.32,9.3-4,18.94-1.44,28.41-1.88,4.48-.21,6.52,2.55,6.53,7.61q0,22.32.07,44.67c0,2.49-.69,3-2.74,3-8.09-.12-16.19,0-24.28,0a12.44,12.44,0,0,1-4.71-.68,5.63,5.63,0,0,1-3.86-5.74V67.3c0-3.4,1.73-5.35,4.57-6,4.28-1,8.62-.39,12.94-.44,4,0,1.83-3.32,2.12-5.11.4-2.49-1.47-1.82-2.68-1.92-.65,0-1.18.31-1.1,1.09.25,2.81-1.46,2.49-3,2.41-4.29-.22-8.61.51-12.94-.42-.72-2.19-.18-4.52-.39-6.69C83.41,51.08,84,52,82.73,52.5Z"/><path class="cls-2" d="M230.66,41.09l1.77,1.68a14.27,14.27,0,0,1,1.07,5.87c0,7.5-.18,15,0,22.49.11,3.27-.86,3.9-3.53,3.78-4.79-.24-9.59-.1-14.39,0-.68,0-1.72-.38-1.85.84-.18,1.9-.51,3.94.19,5.68.39,1,1.72.34,2.64.36a.87.87,0,0,0,.95-.94c-.35-3.28,1.71-2.56,3.28-2.56,3.53,0,7,.11,10.44,0,1.81-.08,2.28.65,2.18,2.57-.13,2.68,0,5.36-.08,8-.14,3.61-1.54,5.44-4.63,6.26a12.4,12.4,0,0,1-3.07.46c-6.77,0-13.54.09-20.32,0-5.52-.09-7.5-2.4-7.5-8.55V47.89c0-4.92,1.95-7.4,6.31-7.49,7.63-.18,15.3-.1,22.87,0A16.5,16.5,0,0,1,230.66,41.09Z"/><path class="cls-2" d="M160.6,43.4c-.28-2.59.58-3.49,3-3.31,3.66.28,7.34,0,11,.09.66,0,1.87-.44,1.8.81-.2,3.28,1.76,2.58,3.34,2.58,4.71,0,9.41.09,14.12,0,1.76,0,2.56.39,2.43,2.68a73.59,73.59,0,0,0,0,8.66c.14,2.29-.73,2.67-2.46,2.59-5-.12-10,0-15-.08-1.81,0-2.45.51-2.35,2.68.13,6.43.08,12.85,0,19.28,0,1.59,0,2.67,1.9,2.53s2.19-.67,2.13-2.68c-.13-5.25,0-10.51-.08-15.74,0-1.85.27-2.68,2.14-2.68,3.85.15,7.72.11,11.58,0,1.52,0,2.14.38,2.13,2.29-.1,8.57,0,17.13,0,25.7.13,3-1.75,5.69-4.38,6.17a25,25,0,0,1-7.31.51c-5.36,0-10.73.08-16.09,0-5.88-.09-7.77-2.34-7.78-8.91q0-14.46-.06-28.92c-4.15-1-4.15-1-4.15-6.28v-1.9C156.47,44.39,156.47,44.39,160.6,43.4Z"/><path class="cls-2" d="M150.89,95.51H129.15c-6.37,0-8.16-2.09-8.17-9.37,0-7.91,0-7.91,7-7.91h7.06c1.1,0,1.89.26,1.72,1.76-.25,2.17,1.18,1.69,2.2,1.82,1.41.18,1.7-.71,1.75-2.12.22-4.84.25-4.77-3.87-4.86-3.65-.1-7.34.46-11-.42-3.37-.82-4.86-2.68-4.89-6.69q-.09-10.29,0-20.58c0-4.17,2-6.69,5.69-6.85,8-.21,16-.19,24,0,2.64,0,4.95,1.34,5.5,4.89,1,3.45.33,7,.4,10.46a1.4,1.4,0,0,1-1.09,1.58,1.22,1.22,0,0,1-.33,0c-4.71-.17-9.54.47-14.28-.32-.13-1.74-.18-3.41-2.47-3.11-1.18.16-1.56.58-1.65,1.92-.32,5.08-.33,5.07,4.13,5.16,3.65.08,7.32-.44,11,.43,2.59.63,4.48,2.32,4.52,5.36.09,8.52.85,17.08-.48,25.58C155.31,95.43,153,95.24,150.89,95.51Z"/><path class="cls-34" d="M270.77,95.36l.1-64.76c1,1.07.53,2.43.54,3.65,0,17.87.06,35.74,0,53.61,0,2.92.37,5.36,2.66,7.31C272.81,94.33,272.08,98.09,270.77,95.36Z"/><path class="cls-1" d="M140.89,56.93c4,0,8.06-.22,12.08.08,2.74.19,3.36-1,3.18-3.82s0-5.35,0-8c.83-2.67,2.84-1.52,4.4-1.82-3.53.47-3.77,3.19-3.38,6.35a7.5,7.5,0,0,1,0,1.34c-.17,3.07-.6,6.31,3.38,6.69-5.7,0-11.42,0-17.14-.12C142.66,57.53,141.56,58.08,140.89,56.93Z"/><path class="cls-35" d="M257.1,21.33c.09-1.45,0-3.09,1.41-3.82a2.89,2.89,0,0,1,3.17.61c1.06.86.43,2.1.15,3.2Z"/><path class="cls-36" d="M150.89,95.51c1.86-.7,3.72-1.34,5-3.27.53,1.23,1,2.48-.3,3.48A3.23,3.23,0,0,1,150.89,95.51Z"/><path class="cls-37" d="M82.73,52.5l1-3.36V57c-.32-.83-.67-1.67-1-2.51Z"/><path class="cls-38" d="M68.7,100.8a5.61,5.61,0,0,1-5.42-.45,5.77,5.77,0,0,1,2.94-.22C67,100.76,68,99.94,68.7,100.8Z"/><path class="cls-39" d="M68.7,100.8c-.81-.29-1.77.16-2.48-.67,2.07,0,4.18-.66,6.19.44Z"/><path class="cls-40" d="M42.43,66.58a4.86,4.86,0,0,1-.71,3.49,1.73,1.73,0,0,1-.29-1.59Z"/><path class="cls-41" d="M52.74,71.75a7.11,7.11,0,0,1,.09-1.53A5.5,5.5,0,0,1,53.51,69l.2,1.46Z"/><path class="cls-42" d="M53.8,100.06H52.7c.07-.62,0-1.34.78-1.34A8.44,8.44,0,0,1,53.8,100.06Z"/><path class="cls-43" d="M66.28,123.07c-2.35-1.24-1-2.6-.3-3.91Z"/><path class="cls-11" d="M62.5,122.28c0-.84.4-.58.7-.62s.77,0,.7.57-.33.65-.49,1Z"/><path class="cls-44" d="M102.56,108.93c-.43-1.75-.46-3.34,1.18-4.43a2.49,2.49,0,0,1,3.15-.13,4.5,4.5,0,0,1,1.36,4,2.59,2.59,0,0,1-1.57,2.41c-1.85.85-3-.62-4.12-1.81l-.08.13Z"/><path class="cls-45" d="M259.44,12.91a10.72,10.72,0,0,1-6.68,3.83A10.63,10.63,0,0,1,259.44,12.91Z"/><path class="cls-46" d="M267.37,8.43a4,4,0,0,1-4.7,2.12A5.72,5.72,0,0,1,267.37,8.43Z"/><path class="cls-47" d="M40.38,137.93c-.09.7-.41,1-.93,1a.56.56,0,0,1-.59-.53.75.75,0,0,1,0-.3,1.41,1.41,0,0,1,.79-.75.5.5,0,0,1,.66.35A.76.76,0,0,1,40.38,137.93Z"/><path class="cls-48" d="M202.94,14.68a2,2,0,0,1-2,1.1.68.68,0,0,1-.66-1c.43-1,1.3-1,2.13-1C202.83,13.81,203.05,14.08,202.94,14.68Z"/><path class="cls-49" d="M91.56,120.71c.19-2,1-3.66,2.64-3.72,1.3,0,2,1.49,2,3-.08,1.94-.91,3.26-2.8,3.24C91.83,123.24,91.63,122,91.56,120.71Z"/><path class="cls-50" d="M125.47,105.07l-1,.1c-.41-.71-1.89-.72-1.28-2a1.63,1.63,0,0,1,2.23-.79C126.82,103.1,125.63,104.14,125.47,105.07Z"/><path class="cls-51" d="M224.75,4.63c-.11.55,0,1.23-.59,1.26s-.76-.54-.79-1.09.07-1.08.63-1.15S224.55,4.29,224.75,4.63Z"/><path class="cls-52" d="M135.31,121.36c-.07.71-.73.72-1.39.65a1.2,1.2,0,0,1-1.12-1.42,1.13,1.13,0,0,1,1.17-1.12l.23,0C134.87,119.67,135.33,120.19,135.31,121.36Z"/><path class="cls-53" d="M254.92,67.83c0,4-.1,7.89,0,11.83.1,2.21-1,1.94-2.29,2.11-1.54.24-1.69-.65-1.68-2V56.06c0-1.62.41-2.28,1.92-2.24s2.08.43,2,2.16C254.88,59.93,254.91,63.88,254.92,67.83Z"/><path class="cls-54" d="M103.45,77.22c-.19,2,1,5.09-2.7,4.58-1-.15-1.28-.53-1.27-1.55,0-1.81.09-3.62,0-5.36s.78-1.8,1.92-1.82,2.27.08,2.08,2C103.44,75.78,103.42,76.5,103.45,77.22Z"/><path class="cls-55" d="M217.67,58.17c-.21,1.06.53,2.55-.5,3.47a3,3,0,0,1-2.73.21c-.87-.2-.69-1.12-.72-1.84V56.79c.06-1.33-.49-3,1.78-3s2.35,1.14,2.16,2.95C217.65,57.16,217.67,57.58,217.67,58.17Z"/></g></svg>
